<svg width="200" height="290" viewBox="0 0 232 306" fill="none" xmlns="http://www.w3.org/2000/svg">
<g opacity="0.75">
<path d="M226.455 108.12C218.805 108.12 212.111 114.337 212.111 122.465V149.72C212.111 157.37 209.242 165.022 203.981 170.281L172.421 203.754C165.249 211.404 153.295 204.232 157.119 200.885L181.506 176.499C188.679 169.326 188.679 157.372 181.506 149.72C176.725 144.939 173.857 154.024 143.252 182.715C122.692 203.276 133.212 226.708 130.341 280.741C130.341 281.696 130.819 282.176 131.777 282.176H176.247C177.203 282.176 177.683 281.699 177.683 280.741L177.68 263.05C177.68 241.054 193.46 232.926 219.28 198.021C238.886 178.415 229.321 155.941 231.713 113.864C231.713 110.516 229.323 108.125 226.454 108.125L226.455 108.12Z" fill="#FFE3B8"/>
<path d="M53.836 281.218C53.836 282.173 54.3137 282.653 55.2713 282.653H99.2641C100.219 282.653 100.699 282.175 100.699 281.218C97.831 228.62 108.349 205.188 87.7882 185.102L55.2735 152.588C54.7958 151.632 53.8382 151.632 52.8828 151.632C51.9274 151.632 50.9698 152.11 50.4921 152.588C43.3196 159.76 43.3196 171.714 50.4921 178.888C73.9216 202.798 77.2702 203.753 74.4017 206.144C70.098 210.447 63.4033 210.447 59.0999 205.666C35.1903 177.453 19.8907 171.238 19.8907 152.11V125.332C19.8907 121.506 18.4554 118.159 15.5869 115.292C13.1962 112.901 9.3703 110.988 5.54653 110.988C2.67812 110.988 0.287378 113.379 0.287378 116.247C2.67812 157.369 -6.88507 179.845 12.7207 199.451L45.2353 239.14C50.9746 245.835 53.8426 254.442 53.8426 263.527L53.836 281.218Z" fill="#FFE3B8"/>
<path d="M104.996 290.309H49.0498C48.0944 290.309 47.6144 290.786 47.6144 291.744V304.177C47.6144 305.133 48.0922 305.612 49.0498 305.612H104.519C105.474 305.612 105.954 305.135 105.954 304.177V291.744C106.432 291.264 105.474 290.309 104.997 290.309H104.996Z" fill="#A3E8FF"/>
<path d="M181.505 290.309H126.036C125.081 290.309 124.601 290.786 124.601 291.744V304.177C124.601 305.133 125.078 305.612 126.036 305.612H181.505C182.46 305.612 182.94 305.135 182.94 304.177V291.744C182.94 291.264 182.46 290.309 181.505 290.309Z" fill="#A3E8FF"/>
<path d="M153.772 153.549C165.726 155.94 178.159 145.419 176.246 132.03C171.465 132.985 158.553 132.507 159.989 128.684C160.467 127.728 161.424 127.248 162.38 127.248C187.244 134.898 197.765 109.555 185.332 96.6441C195.372 88.5142 194.895 73.2146 183.896 65.5626C191.069 55.042 185.809 40.2198 173.856 36.3938C173.378 39.7399 170.51 49.305 167.639 47.3922C166.684 46.9145 166.204 45.4792 167.162 45.0015C167.162 45.0015 169.552 41.1754 170.508 35.9163C174.812 21.572 162.378 8.18293 148.989 11.0515C142.772 -0.902237 126.992 -2.81496 118.385 5.79231L118.387 62.216C119.822 61.2606 120.777 59.8253 121.255 58.39C121.733 57.4346 122.691 56.9546 123.646 57.4346C124.601 57.9123 125.081 58.8699 124.601 59.8253C123.646 62.6937 121.255 65.0845 118.385 66.5199V101.426C121.731 102.861 124.601 105.252 126.034 109.075C126.512 110.031 126.034 110.988 125.079 111.466C124.124 111.944 123.166 111.466 122.688 110.511C121.733 108.598 120.298 106.685 118.385 105.729V155.937C126.037 170.761 148.033 169.326 153.772 153.546L153.772 153.549ZM172.42 53.6125C178.637 62.2198 175.289 72.7386 171.943 72.7386C171.465 72.7386 171.465 72.7386 170.987 72.2609C170.032 71.7832 170.032 70.3479 170.51 69.8702C174.813 63.1756 169.554 56.0038 169.554 56.0038C167.639 53.613 170.985 51.7 172.42 53.613V53.6125ZM169.074 96.6477C180.55 93.7793 184.854 83.7365 181.508 73.6956C181.03 72.7402 181.985 71.7826 182.943 71.3048C187.247 69.8695 188.682 86.6066 180.552 94.7343C189.159 106.688 181.03 120.077 177.206 120.077C175.293 120.077 174.815 117.686 176.251 116.731C181.51 112.905 182.945 104.777 177.686 97.1252C175.773 98.5606 172.904 99.516 170.036 100.471H169.558C168.603 100.471 168.123 99.9937 167.645 99.036C167.639 98.0828 168.117 97.1252 169.074 96.6475L169.074 96.6477ZM167.161 107.168C169.074 110.037 168.597 114.341 166.206 116.731C163.815 119.122 160.467 119.122 158.076 120.077C155.207 121.033 154.73 123.424 155.208 124.381C156.163 125.817 155.207 127.25 153.772 127.25C150.904 127.25 148.991 119.6 156.641 116.729C157.596 116.251 158.554 116.251 159.509 115.774C160.944 115.296 162.855 114.818 163.813 113.861C165.248 112.905 165.248 110.515 164.29 109.079C163.813 108.124 163.813 107.166 164.768 106.211C165.726 106.211 166.681 106.211 167.161 107.168L167.161 107.168ZM166.204 62.6977C166.204 63.6531 165.248 64.6107 164.291 64.6107C157.596 64.133 152.337 67.0014 148.511 70.35C156.161 73.6961 163.335 77.0445 165.246 82.7833C165.724 83.7387 165.246 84.6963 164.29 85.174H163.813C162.857 85.174 162.377 84.6963 161.9 83.7387C159.987 78.9572 149.946 75.1314 144.685 72.2629C144.207 71.7852 135.599 68.9167 134.164 54.0925C134.164 51.7018 137.51 51.2241 137.99 53.6148C138.468 58.3963 139.903 64.6133 145.163 67.9592C149.466 64.1331 156.638 59.8292 165.246 60.3094C165.726 60.7849 166.682 61.2626 166.204 62.6979L166.204 62.6977ZM141.817 40.7013C140.381 38.7883 143.252 36.3976 144.685 38.3106C151.38 47.8736 147.076 59.3494 143.25 56.9588C142.294 56.4811 142.294 55.0458 142.772 54.5681C147.078 48.3537 141.817 40.7016 141.817 40.7016L141.817 40.7013ZM124.126 12.0104C121.735 8.66427 130.82 5.31587 137.515 10.5751C144.21 15.3566 145.165 24.4415 150.904 29.2233C153.295 31.1363 156.643 32.0917 159.511 30.1787C162.38 28.2657 165.251 34.9602 156.643 34.9602C150.426 34.9602 146.122 30.6565 143.254 24.9198C139.908 34.4829 129.865 30.1789 129.387 39.7443C129.387 40.6997 128.432 41.6573 127.474 41.6573C126.519 41.6573 125.561 40.7019 125.561 39.7443C125.561 26.8331 142.777 30.6591 139.906 19.6606V19.1829C138.47 17.2699 137.515 15.3569 135.602 13.9238C133.211 12.0108 129.385 11.0554 126.995 12.9684C125.559 13.4461 124.604 12.9684 124.126 12.0108L124.126 12.0104ZM124.126 80.3929C126.039 77.0468 130.82 76.0892 135.124 80.3929C137.037 82.3059 138.471 84.6967 140.384 85.6521C144.21 87.0874 144.687 81.826 147.556 83.2613C150.902 85.1744 145.643 89.478 141.817 89.478C138.471 89.478 136.558 87.0872 134.167 84.6965C133.211 83.2612 131.776 81.3504 129.863 81.3504C128.908 81.3504 127.95 81.8281 127.95 82.3058C127.472 83.2612 126.515 83.7411 125.559 83.2612C124.126 82.3058 123.646 81.3482 124.126 80.3928L124.126 80.3929ZM125.559 98.5633C125.081 97.6079 125.559 96.6503 126.514 96.1725C135.6 92.8264 142.294 97.1279 146.12 105.258C152.337 101.912 159.031 102.389 160.945 98.0853C161.422 96.6499 161.422 94.7391 160.467 92.8261C159.989 91.8707 160.467 90.9131 161.422 90.4354C162.378 89.9577 163.335 90.4354 163.813 91.3908C165.248 94.7369 165.726 97.6074 164.291 99.998C162.378 103.824 158.552 105.257 155.206 106.215C151.38 107.17 148.511 108.128 146.12 110.041C143.73 111.476 141.817 113.387 141.339 115.3C140.861 116.255 140.861 117.691 140.861 119.126C140.861 120.081 139.906 121.039 138.948 121.039C137.993 121.039 137.035 120.084 137.035 119.126C137.035 114.344 139.426 110.519 143.252 107.65C140.383 100.956 135.602 97.6098 128.427 100C126.994 99.996 125.559 99.5183 125.559 98.5629L125.559 98.5633ZM128.43 158.335C129.385 154.031 137.037 162.161 142.774 147.814C137.035 145.901 132.253 140.642 128.43 132.512C127.952 131.557 128.43 130.599 129.385 130.121C130.341 129.644 131.298 130.121 131.776 131.077C138.47 144.466 149.946 150.203 160.945 140.162C161.9 139.684 162.858 139.684 163.813 140.162C167.159 143.508 153.773 149.725 146.598 148.769C140.384 164.073 127.95 161.683 128.43 158.335L128.43 158.335Z" fill="#A3E8FF"/>
<path d="M83.0004 10.5745C70.0892 8.18375 57.1803 20.6149 61.4814 35.4394C62.4368 40.6985 64.8275 44.5245 64.8275 44.5245C66.2628 46.9153 62.9145 48.3506 61.4814 46.4375C61.4814 45.9598 59.0906 41.6561 57.6553 35.917C50.0055 38.3077 44.2662 45.4801 44.2662 54.0873C44.2662 57.9134 45.7016 61.7371 47.6124 64.6079C42.8309 67.954 39.4824 73.6931 39.4824 80.3876C39.4824 86.6042 42.3508 91.8634 46.6549 95.2121C43.3087 98.5582 41.3957 103.342 41.3957 108.601C41.3957 116.731 46.1772 123.426 52.8715 126.294C63.87 130.598 70.5645 123.426 71.9977 127.25C72.9531 130.596 62.9125 131.076 60.5219 131.076C59.0865 131.076 57.1757 131.076 55.2627 130.598V132.989C55.2627 145.422 66.7385 154.508 78.2149 152.115C83.9542 167.895 105.948 169.33 113.6 154.506L113.605 105.731C109.301 108.122 109.779 112.426 106.91 111.47C103.084 110.035 108.823 103.34 113.605 101.43V66.9997C110.736 65.5644 108.346 63.1736 107.388 60.3052C106.91 59.3498 107.388 58.3922 108.343 57.9144C109.299 57.4367 110.256 57.9144 110.734 58.8698C111.212 60.3052 112.17 61.7383 113.603 62.6959L113.605 5.31412C104.998 -3.29146 89.2178 -1.38042 83.0006 10.5755L83.0004 10.5745ZM87.3041 67.9563C92.5633 64.6101 93.9987 58.3932 94.4766 53.612C94.4766 52.6566 95.432 51.699 96.3896 51.699C97.345 51.699 98.3026 52.6544 98.3026 53.612C97.3472 68.4364 88.2622 71.305 87.782 71.7823C82.5229 74.6507 72.4802 77.9989 70.5669 83.2581C69.1316 87.0842 58.1337 81.3451 83.4781 69.869C72.0023 60.7838 65.7851 66.5229 65.3078 62.6966C65.31 57.9151 79.1765 61.2612 87.3041 67.9557V67.9563ZM89.2172 54.5672C89.6949 55.5226 89.6949 56.4802 88.7394 56.9579C87.784 57.4357 86.8264 57.4357 86.3487 56.4802C81.0895 47.873 87.3041 38.7872 87.784 38.3099C88.2617 37.3545 89.6971 37.3545 90.6525 37.8322C91.6079 38.3099 91.6079 39.7452 91.1302 40.7006C90.1748 40.7006 84.9135 48.3526 89.2172 54.567V54.5672ZM59.571 53.6118C60.0487 52.6564 61.484 52.6564 62.4394 53.1341C65.7856 55.5248 56.2228 61.264 61.9617 69.869C63.3971 71.7821 60.0487 74.1728 58.6156 71.7821C52.8763 63.1748 59.571 54.089 59.571 53.6117L59.571 53.6118ZM54.3119 97.1249C49.0527 104.775 50.9657 112.905 55.7472 116.731C56.7026 117.208 56.7026 118.644 56.2249 119.599C55.7472 120.554 54.3119 120.554 53.3565 120.077C46.6619 114.818 44.2713 104.775 50.9658 95.2119C42.3585 87.082 44.7491 70.8249 48.575 71.7824C52.4011 72.7378 45.7066 79.9123 51.4434 89.4754C56.2249 98.0827 64.8325 95.2147 63.8767 99.0385C63.3968 102.387 56.7026 98.5608 54.3114 97.1255L54.3119 97.1249ZM65.7877 116.731C61.0062 112.427 64.3523 104.297 67.223 106.69C69.6137 108.603 64.8323 110.994 68.1784 113.863C69.6137 115.298 72.4822 115.298 74.8729 116.253C83.9581 119.6 80.1321 129.165 76.786 126.774C74.3952 124.861 79.6544 121.993 73.4398 120.079C71.0469 119.122 68.1785 119.122 65.7878 116.731L65.7877 116.731ZM103.561 132.51C99.7354 140.64 94.4763 145.422 89.2172 147.812C94.9565 162.156 102.606 154.029 103.561 158.333C104.039 161.679 91.6078 164.072 85.3911 148.77C79.1745 149.725 64.8302 143.988 68.176 140.162C71.0444 137.294 74.8706 146.857 85.869 144.944C86.8244 144.466 93.5188 144.466 100.213 131.077C100.691 130.122 101.649 129.642 102.604 130.122C103.562 130.598 104.042 131.553 103.562 132.511L103.561 132.51ZM104.041 99.9935C96.8689 97.6027 92.0877 100.949 89.2169 107.643C93.043 110.512 95.4335 114.338 95.4335 119.119C95.4335 120.074 94.4781 121.032 93.5205 121.032C92.5651 121.032 91.6075 120.077 91.6075 119.119C91.6075 117.684 91.6075 116.728 91.1298 115.293C90.1744 113.38 88.7391 111.467 86.3483 110.034C83.9576 108.598 81.0892 107.165 77.2632 106.208C69.1332 104.295 65.3095 99.0353 68.6559 91.3832C69.6113 88.9925 72.9597 90.9055 72.0021 92.8186C67.6983 102.382 79.1745 101.904 85.8685 105.252C89.2146 97.1219 96.389 92.8186 105.474 96.1667C107.865 97.1243 106.432 100.473 104.041 99.9928L104.041 99.9935ZM107.865 80.39C108.343 81.3454 107.865 82.303 106.91 82.7807C104.519 84.216 104.519 80.8677 102.128 81.3454C97.8246 81.8231 96.3891 89.4753 90.1747 89.4753C85.8709 89.4753 81.0895 85.1716 84.4354 83.2587C87.7815 81.3457 88.2614 90.4311 94.9559 82.3033C100.693 75.6087 105.954 76.564 107.865 80.3903L107.865 80.39ZM105.475 12.4921C102.606 10.5791 97.3446 11.0568 92.5633 18.7088C91.6079 27.316 96.8671 27.316 100.693 29.2293C104.519 31.1423 106.91 34.9686 106.91 39.2697C106.91 40.2251 105.955 41.1827 104.997 41.1827C104.041 41.1827 103.084 40.2273 103.084 39.2697C103.084 36.4013 101.171 34.0106 98.7802 32.5752C98.3024 32.0975 97.3448 32.0975 96.8671 31.6198C93.521 30.1844 90.6505 28.7514 89.2174 24.4473C80.6101 39.7491 67.6983 34.0104 70.0912 30.1866C72.4819 27.3138 77.741 38.79 87.3041 20.6191C89.2171 17.2729 91.1301 13.4466 94.4765 10.5787C97.8227 8.18792 103.084 6.75259 107.388 9.62325C109.778 11.0564 107.388 13.9248 105.475 12.4917L105.475 12.4921Z" fill="#A3E8FF"/>
</g>
</svg>
