<svg width="361" height="280" viewBox="0 0 361 280" fill="none" xmlns="http://www.w3.org/2000/svg">
<path d="M360.492 235.51C354.598 244.925 346.005 251.329 337.262 257.35C312.643 274.349 285.558 281.78 256.007 279.642C242.88 278.744 229.975 275.661 217.781 270.511C266.987 268.364 308.155 248.475 341.323 210.05C348.242 216.16 356.196 220.897 360.492 229.665V235.51Z" fill="#A3E9FB" fill-opacity="0.62"/>
<path d="M125.619 124.758C126.465 76.2419 141.676 37.0624 171.93 4.33599C177.288 -1.46003 183.399 -1.43061 188.786 4.33599C213.154 30.6093 228.45 61.6881 233.094 97.9647C240.051 152.129 224.896 199.047 189.106 238.805C183.418 245.121 177.288 244.993 171.506 238.746C148.326 214.033 133.073 182.42 127.856 148.275C126.418 139.508 126.136 130.544 125.619 124.758Z" fill="#A3E9FB" fill-opacity="0.62"/>
<path d="M229.85 220.662C234.306 210.776 239.251 200.979 243.218 190.75C253.56 163.79 257.32 135.713 255.168 106.732C253.869 89.1962 250.194 71.9404 244.253 55.4803C243.313 52.9697 243.66 51.685 246.001 50.6945C256.935 46.1047 267.737 41.1227 278.802 36.9645C285.891 34.2773 291.738 37.9452 293.412 45.683C306.843 107.305 292.017 160.345 248.934 204.804C243.858 210.011 237.935 214.307 232.369 218.995C231.561 219.6 230.719 220.157 229.85 220.662Z" fill="#A3E9FB" fill-opacity="0.62"/>
<path d="M130.477 221.447C122.749 214.435 114.58 207.874 107.359 200.322C82.9912 174.824 68.7201 143.941 63.728 108.41C60.8831 87.538 62.0528 66.2842 67.1689 45.8893C69.0492 37.9847 74.6899 34.2286 81.9759 36.955C92.731 40.9857 103.204 45.7814 113.846 50.1848C116.883 51.4303 117.39 53.0583 116.206 56.2652C107.209 80.685 103.787 106.085 105.131 132.104C106.572 161.867 114.855 190.832 129.283 216.553L131.398 220.348L130.477 221.447Z" fill="#A3E9FB" fill-opacity="0.62"/>
<path d="M43.6965 117.246C54.2729 174.127 83.3511 217.2 130.856 247.338C128.91 247.102 126.954 246.887 125.008 246.612C123.062 246.337 121.06 246.122 119.114 245.7C68.8229 234.755 33.0229 204.906 11.7133 156.151C8.89294 149.639 7.01268 142.656 4.96321 135.791C4.54035 134.48 4.37212 133.093 4.46833 131.713C4.56454 130.332 4.92327 128.986 5.52359 127.752C6.12391 126.517 6.9538 125.42 7.96486 124.524C8.97592 123.628 10.1479 122.951 11.4125 122.532C21.8821 119.196 32.7504 117.416 43.6965 117.246Z" fill="#A3E9FB" fill-opacity="0.62"/>
<path d="M229.843 247.474C277.207 217.356 306.313 174.264 317.078 116.735C324.448 117.716 331.819 118.697 339.171 119.873C342.167 120.388 345.129 121.106 348.036 122.021C354.363 123.983 357.532 129.69 355.623 136.232C338.24 195.732 300.212 231.998 242.178 245.611C238.135 246.562 233.961 246.876 229.843 247.474Z" fill="#A3E9FB" fill-opacity="0.62"/>
<path d="M19.2057 209.873C52.5144 248.464 93.6638 268.323 143.058 271.059C137.229 272.874 131.485 275.139 125.553 276.433C79.6747 286.456 39.3339 275.178 4.87817 241.785C-1.58991 235.518 -1.64632 229.31 4.83116 222.975C9.40018 218.464 14.317 214.296 19.2057 209.873Z" fill="#A3E9FB" fill-opacity="0.62"/>
</svg>
