<svg width="19" height="18" viewBox="0 0 19 18" fill="none" xmlns="http://www.w3.org/2000/svg">
<path d="M13.3541 2.85481H5.99059C3.78154 2.85481 2.30884 3.95934 2.30884 6.53656V11.691C2.30884 14.2682 3.78154 15.3728 5.99059 15.3728H13.3541C15.5631 15.3728 17.0358 14.2682 17.0358 11.691V6.53656C17.0358 3.95934 15.5631 2.85481 13.3541 2.85481ZM13.7002 7.33918L11.3954 9.18005C10.9094 9.57032 10.2909 9.76177 9.67233 9.76177C9.0538 9.76177 8.4279 9.57032 7.94927 9.18005L5.6445 7.33918C5.40887 7.14773 5.37205 6.79428 5.55614 6.55865C5.74759 6.32302 6.09367 6.27884 6.32931 6.47029L8.63408 8.31116C9.19371 8.76034 10.1436 8.76034 10.7032 8.31116L13.008 6.47029C13.2436 6.27884 13.5971 6.31565 13.7812 6.55865C13.9726 6.79428 13.9358 7.14773 13.7002 7.33918Z" fill="#4182F9"/>
</svg>
