<svg width="14" height="14" viewBox="0 0 14 14" fill="none" xmlns="http://www.w3.org/2000/svg">
<path d="M10.308 2.56404L11.388 1.48404C11.8566 1.01541 12.6164 1.01541 13.0851 1.48404C13.5537 1.95267 13.5537 2.71247 13.0851 3.1811L6.28912 9.97703C5.95077 10.3154 5.53344 10.5641 5.07485 10.7007L3.35652 11.2126L3.86838 9.49425C4.00499 9.03566 4.2537 8.61833 4.59206 8.27998L10.308 2.56404ZM10.308 2.56404L11.9965 4.25256M11.0365 8.65256V11.6926C11.0365 12.4879 10.3918 13.1326 9.59652 13.1326H2.87652C2.08123 13.1326 1.43652 12.4879 1.43652 11.6926V4.97256C1.43652 4.17727 2.08123 3.53256 2.87652 3.53256H5.91652" stroke="#B91C1C" stroke-width="0.96" stroke-linecap="round" stroke-linejoin="round"/>
</svg>
