<svg width="11" height="11" viewBox="0 0 11 11" fill="none" xmlns="http://www.w3.org/2000/svg">
<path d="M5.65385 5.65385C5.65385 5.87688 5.47304 6.05769 5.25 6.05769C5.02696 6.05769 4.84615 5.87688 4.84615 5.65385C4.84615 5.43081 5.02696 5.25 5.25 5.25C5.47304 5.25 5.65385 5.43081 5.65385 5.65385Z" fill="#4318FF"/>
<path d="M2.82692 7.26923C3.04996 7.26923 3.23077 7.08842 3.23077 6.86538C3.23077 6.64235 3.04996 6.46154 2.82692 6.46154C2.60388 6.46154 2.42308 6.64235 2.42308 6.86538C2.42308 7.08842 2.60388 7.26923 2.82692 7.26923Z" fill="#4318FF"/>
<path d="M3.23077 8.07692C3.23077 8.29996 3.04996 8.48077 2.82692 8.48077C2.60388 8.48077 2.42308 8.29996 2.42308 8.07692C2.42308 7.85388 2.60388 7.67308 2.82692 7.67308C3.04996 7.67308 3.23077 7.85388 3.23077 8.07692Z" fill="#4318FF"/>
<path d="M4.03846 7.26923C4.2615 7.26923 4.44231 7.08842 4.44231 6.86538C4.44231 6.64235 4.2615 6.46154 4.03846 6.46154C3.81542 6.46154 3.63462 6.64235 3.63462 6.86538C3.63462 7.08842 3.81542 7.26923 4.03846 7.26923Z" fill="#4318FF"/>
<path d="M4.44231 8.07692C4.44231 8.29996 4.2615 8.48077 4.03846 8.48077C3.81542 8.48077 3.63462 8.29996 3.63462 8.07692C3.63462 7.85388 3.81542 7.67308 4.03846 7.67308C4.2615 7.67308 4.44231 7.85388 4.44231 8.07692Z" fill="#4318FF"/>
<path d="M5.25 7.26923C5.47304 7.26923 5.65385 7.08842 5.65385 6.86538C5.65385 6.64235 5.47304 6.46154 5.25 6.46154C5.02696 6.46154 4.84615 6.64235 4.84615 6.86538C4.84615 7.08842 5.02696 7.26923 5.25 7.26923Z" fill="#4318FF"/>
<path d="M5.65385 8.07692C5.65385 8.29996 5.47304 8.48077 5.25 8.48077C5.02696 8.48077 4.84615 8.29996 4.84615 8.07692C4.84615 7.85388 5.02696 7.67308 5.25 7.67308C5.47304 7.67308 5.65385 7.85388 5.65385 8.07692Z" fill="#4318FF"/>
<path d="M6.46154 7.26923C6.68458 7.26923 6.86538 7.08842 6.86538 6.86538C6.86538 6.64235 6.68458 6.46154 6.46154 6.46154C6.2385 6.46154 6.05769 6.64235 6.05769 6.86538C6.05769 7.08842 6.2385 7.26923 6.46154 7.26923Z" fill="#4318FF"/>
<path d="M6.86538 8.07692C6.86538 8.29996 6.68458 8.48077 6.46154 8.48077C6.2385 8.48077 6.05769 8.29996 6.05769 8.07692C6.05769 7.85388 6.2385 7.67308 6.46154 7.67308C6.68458 7.67308 6.86538 7.85388 6.86538 8.07692Z" fill="#4318FF"/>
<path d="M7.67308 7.26923C7.89611 7.26923 8.07692 7.08842 8.07692 6.86538C8.07692 6.64235 7.89611 6.46154 7.67308 6.46154C7.45004 6.46154 7.26923 6.64235 7.26923 6.86538C7.26923 7.08842 7.45004 7.26923 7.67308 7.26923Z" fill="#4318FF"/>
<path d="M6.86538 5.65385C6.86538 5.87688 6.68458 6.05769 6.46154 6.05769C6.2385 6.05769 6.05769 5.87688 6.05769 5.65385C6.05769 5.43081 6.2385 5.25 6.46154 5.25C6.68458 5.25 6.86538 5.43081 6.86538 5.65385Z" fill="#4318FF"/>
<path d="M7.67308 6.05769C7.89611 6.05769 8.07692 5.87688 8.07692 5.65385C8.07692 5.43081 7.89611 5.25 7.67308 5.25C7.45004 5.25 7.26923 5.43081 7.26923 5.65385C7.26923 5.87688 7.45004 6.05769 7.67308 6.05769Z" fill="#4318FF"/>
<path fill-rule="evenodd" clip-rule="evenodd" d="M2.42308 0C2.64611 0 2.82692 0.180808 2.82692 0.403846V1.21154H7.67308V0.403846C7.67308 0.180808 7.85388 0 8.07692 0C8.29996 0 8.48077 0.180808 8.48077 0.403846V1.21154H8.88461C9.77677 1.21154 10.5 1.93477 10.5 2.82692V8.88461C10.5 9.77677 9.77677 10.5 8.88461 10.5H1.61538C0.723232 10.5 0 9.77677 0 8.88461V2.82692C0 1.93477 0.723232 1.21154 1.61538 1.21154H2.01923V0.403846C2.01923 0.180808 2.20004 0 2.42308 0ZM9.69231 4.84615C9.69231 4.40008 9.33069 4.03846 8.88461 4.03846H1.61538C1.16931 4.03846 0.807692 4.40008 0.807692 4.84615V8.88461C0.807692 9.33069 1.16931 9.69231 1.61538 9.69231H8.88461C9.33069 9.69231 9.69231 9.33069 9.69231 8.88461V4.84615Z" fill="#4318FF"/>
</svg>
