<svg width="10" height="12" viewBox="0 0 10 12" fill="none" xmlns="http://www.w3.org/2000/svg">
<path fill-rule="evenodd" clip-rule="evenodd" d="M2.39383 3.22618H4.38566L4.38691 3.22619H6.18413C7.17407 3.22761 7.97614 4.03056 7.97614 5.02083V10.006C8.85716 10.006 9.57138 9.29174 9.57138 8.41071V3.28373C9.57138 2.48324 8.97329 1.78866 8.15478 1.72073C8.03578 1.71085 7.91657 1.70178 7.79713 1.69352C7.5313 1.18241 6.99689 0.833328 6.38096 0.833328H5.58334C4.9674 0.833328 4.433 1.1824 4.16717 1.69351C4.04769 1.70177 3.92843 1.71085 3.8094 1.72073C3.01056 1.78703 2.42169 2.45021 2.39383 3.22618ZM5.58334 1.63095C5.14282 1.63095 4.78572 1.98805 4.78572 2.42857H7.17858C7.17858 1.98805 6.82147 1.63095 6.38096 1.63095H5.58334Z" fill="#4318FF"/>
<path fill-rule="evenodd" clip-rule="evenodd" d="M0 5.02083C0 4.47019 0.446383 4.02381 0.997024 4.02381H6.18155C6.73219 4.02381 7.17858 4.47019 7.17858 5.02083V11.003C7.17858 11.5536 6.73219 12 6.18155 12H0.997024C0.446383 12 0 11.5536 0 11.003V5.02083ZM1.59524 6.41667C1.59524 6.19641 1.77379 6.01786 1.99405 6.01786H1.99804C2.21829 6.01786 2.39685 6.19641 2.39685 6.41667V6.42065C2.39685 6.64091 2.21829 6.81946 1.99804 6.81946H1.99405C1.77379 6.81946 1.59524 6.64091 1.59524 6.42065V6.41667ZM2.79167 6.41667C2.79167 6.19641 2.97022 6.01786 3.19048 6.01786H5.18453C5.40478 6.01786 5.58334 6.19641 5.58334 6.41667C5.58334 6.63692 5.40478 6.81547 5.18453 6.81547H3.19048C2.97022 6.81547 2.79167 6.63692 2.79167 6.41667ZM1.59524 8.0119C1.59524 7.79165 1.77379 7.61309 1.99405 7.61309H1.99804C2.21829 7.61309 2.39685 7.79165 2.39685 8.0119V8.01589C2.39685 8.23615 2.21829 8.4147 1.99804 8.4147H1.99405C1.77379 8.4147 1.59524 8.23615 1.59524 8.01589V8.0119ZM2.79167 8.0119C2.79167 7.79165 2.97022 7.61309 3.19048 7.61309H5.18453C5.40478 7.61309 5.58334 7.79165 5.58334 8.0119C5.58334 8.23216 5.40478 8.41071 5.18453 8.41071H3.19048C2.97022 8.41071 2.79167 8.23216 2.79167 8.0119ZM1.59524 9.60714C1.59524 9.38689 1.77379 9.20833 1.99405 9.20833H1.99804C2.21829 9.20833 2.39685 9.38689 2.39685 9.60714V9.61113C2.39685 9.83139 2.21829 10.0099 1.99804 10.0099H1.99405C1.77379 10.0099 1.59524 9.83139 1.59524 9.61113V9.60714ZM2.79167 9.60714C2.79167 9.38689 2.97022 9.20833 3.19048 9.20833H5.18453C5.40478 9.20833 5.58334 9.38689 5.58334 9.60714C5.58334 9.8274 5.40478 10.006 5.18453 10.006H3.19048C2.97022 10.006 2.79167 9.8274 2.79167 9.60714Z" fill="#4318FF"/>
</svg>
