<svg width="19" height="19" viewBox="0 0 19 19" fill="#312e81" xmlns="http://www.w3.org/2000/svg">
<path d="M17.2756 0.0118866C17.2559 0.0102921 17.2392 0 17.2186 0H8.70825C7.39884 0 6.33325 1.06559 6.33325 2.375V3.16662C6.33325 3.60367 6.68782 3.95838 7.12487 3.95838C7.56192 3.95838 7.91649 3.60367 7.91649 3.16662V2.375C7.91649 1.93882 8.27193 1.58338 8.70825 1.58338H12.3966L12.1551 1.66412C11.5139 1.88577 11.0833 2.48981 11.0833 3.16662V15.0416H8.70825C8.27193 15.0416 7.91649 14.6862 7.91649 14.25V12.6666C7.91649 12.2297 7.56192 11.875 7.12487 11.875C6.68782 11.875 6.33325 12.2297 6.33325 12.6666V14.25C6.33325 15.5594 7.39884 16.625 8.70825 16.625H11.0833V17.4166C11.0833 18.2898 11.7933 19 12.6665 19C12.8359 19 12.9967 18.9755 13.1708 18.9216L17.9272 17.3359C18.5692 17.1142 18.9999 16.5102 18.9999 15.8334V1.58338C18.9999 0.660286 18.2042 -0.0633469 17.2756 0.0118866Z" fill="#312e81"/>
<path d="M8.4763 7.35688L5.30968 4.19026C5.08326 3.96383 4.7429 3.8957 4.44675 4.01848C4.15147 4.14112 3.95838 4.43017 3.95838 4.74994V7.12494H0.791618C0.354713 7.12494 0 7.47966 0 7.91656C0 8.35361 0.354713 8.70833 0.791618 8.70833H3.95838V11.0833C3.95838 11.4031 4.15147 11.692 4.44675 11.8148C4.7429 11.9374 5.08326 11.8694 5.30968 11.643L8.4763 8.47625C8.78593 8.16676 8.78593 7.66651 8.4763 7.35688Z" fill="#312e81"/>
</svg>
