<svg width="12" height="11" viewBox="0 0 12 11" fill="none" xmlns="http://www.w3.org/2000/svg">
<path d="M2.50552 2.17584C2.50552 0.974156 3.47968 0 4.68136 0C5.88305 0 6.8572 0.974156 6.8572 2.17584C6.8572 3.37752 5.88305 4.35168 4.68136 4.35168C3.47968 4.35168 2.50552 3.37752 2.50552 2.17584Z" fill="#4318FF"/>
<path d="M7.64842 3.36266C7.64842 2.37947 8.44545 1.58243 9.42865 1.58243C10.4118 1.58243 11.2089 2.37947 11.2089 3.36266C11.2089 4.34585 10.4118 5.14289 9.42865 5.14289C8.44545 5.14289 7.64842 4.34585 7.64842 3.36266Z" fill="#4318FF"/>
<path d="M0.923096 8.90116C0.923096 6.82553 2.60573 5.14289 4.68136 5.14289C6.757 5.14289 8.43963 6.82553 8.43963 8.90116V8.90251C8.43962 8.9235 8.43944 8.9446 8.43909 8.96548C8.43679 9.10183 8.36443 9.2274 8.2476 9.29774C7.20571 9.92505 5.98506 10.2858 4.68136 10.2858C3.37767 10.2858 2.15702 9.92505 1.11513 9.29774C0.998294 9.2274 0.92593 9.10183 0.923637 8.96548C0.923278 8.94409 0.923096 8.92265 0.923096 8.90116Z" fill="#4318FF"/>
<path d="M9.23076 8.90282C9.23075 8.92816 9.23053 8.95358 9.23011 8.97878C9.2271 9.15741 9.18402 9.32987 9.10724 9.48505C9.21356 9.49137 9.32069 9.49457 9.42856 9.49457C10.2703 9.49457 11.0675 9.29957 11.7767 8.95193C11.907 8.88806 11.9918 8.75798 11.9978 8.613C11.9993 8.57735 12 8.54152 12 8.50555C12 7.08538 10.8487 5.93411 9.42856 5.93411C9.03483 5.93411 8.66177 6.0226 8.32817 6.18078C8.89508 6.93954 9.23076 7.88115 9.23076 8.90116V8.90282Z" fill="#4318FF"/>
</svg>
