<svg width="11" height="11" viewBox="0 0 11 11" fill="none" xmlns="http://www.w3.org/2000/svg">
<path fill-rule="evenodd" clip-rule="evenodd" d="M9.27124 9.50349C10.3356 8.50053 11 7.07786 11 5.5C11 2.46243 8.53757 0 5.5 0C2.46243 0 0 2.46243 0 5.5C0 7.07786 0.66443 8.50053 1.72876 9.50349C2.7134 10.4313 4.04029 11 5.5 11C6.95971 11 8.2866 10.4313 9.27124 9.50349ZM2.19725 8.77874C2.9726 7.81158 4.16398 7.19231 5.5 7.19231C6.83602 7.19231 8.0274 7.81158 8.80275 8.77874C7.95964 9.62798 6.79123 10.1538 5.5 10.1538C4.20877 10.1538 3.04036 9.62798 2.19725 8.77874ZM7.61538 3.80769C7.61538 4.97599 6.66829 5.92308 5.5 5.92308C4.33171 5.92308 3.38462 4.97599 3.38462 3.80769C3.38462 2.6394 4.33171 1.69231 5.5 1.69231C6.66829 1.69231 7.61538 2.6394 7.61538 3.80769Z" fill="#4318FF"/>
</svg>
