<svg width="75" height="75" viewBox="0 0 75 75" fill="none" xmlns="http://www.w3.org/2000/svg">
<rect x="0.360352" y="0.0908203" width="74.0592" height="74.0592" rx="37.0296" fill="#1195FF"/>
<path d="M35.626 20.2621L26.298 23.7559C24.5172 24.4343 23.0586 26.5374 23.0586 28.4538V42.1915C23.0586 43.5653 23.9575 45.38 25.0599 46.1941L34.3879 53.1647C36.0331 54.4028 38.7297 54.4028 40.3749 53.1647L49.7029 46.1941C50.8053 45.3631 51.7042 43.5653 51.7042 42.1915V28.4538C51.7042 26.5543 50.2457 24.4343 48.4648 23.7729L39.1368 20.2791C38.187 19.9059 36.5928 19.9059 35.626 20.2621Z" fill="white"/>
<path d="M35.1172 40.9027C34.795 40.9027 34.4728 40.784 34.2184 40.5296L31.4878 37.799C30.9959 37.3071 30.9959 36.4931 31.4878 36.0012C31.9796 35.5094 32.7937 35.5094 33.2855 36.0012L35.1172 37.8329L41.5112 31.439C42.003 30.9471 42.8171 30.9471 43.309 31.439C43.8008 31.9308 43.8008 32.7449 43.309 33.2367L36.0161 40.5296C35.7617 40.784 35.4395 40.9027 35.1172 40.9027Z" fill="#292D32"/>
</svg>
