<svg width="21" height="22" viewBox="0 0 21 22" fill="none" xmlns="http://www.w3.org/2000/svg">
<path d="M19.087 6.16397H1.91296C0.858152 6.16397 0 7.02212 0 8.07693V15.7287C0 16.7836 0.858152 17.6417 1.91296 17.6417H19.087C20.1418 17.6417 21 16.7836 21 15.7287V8.07693C21 7.02212 20.1418 6.16397 19.087 6.16397ZM5.04769 12.8949C4.88467 12.8949 4.60614 12.8961 4.34543 12.8974V14.3681C4.34543 14.7203 4.05993 15.0058 3.70778 15.0058C3.35562 15.0058 3.07012 14.7203 3.07012 14.3681L3.06073 9.52431C3.06018 9.35487 3.12713 9.19214 3.24675 9.07209C3.36638 8.95204 3.52894 8.88462 3.69838 8.88462H5.04769C6.16809 8.88462 7.07964 9.78413 7.07964 10.8898C7.07964 11.9954 6.16809 12.8949 5.04769 12.8949ZM10.5216 14.852C10.1419 14.8587 9.19188 14.8623 9.15162 14.8624C9.15081 14.8624 9.15001 14.8624 9.1492 14.8624C8.98094 14.8624 8.81945 14.7959 8.69999 14.6773C8.57995 14.5582 8.51218 14.3962 8.51155 14.2271C8.5115 14.2101 8.50202 9.5235 8.50202 9.5235C8.50173 9.35419 8.56872 9.19167 8.68835 9.07183C8.80797 8.952 8.97036 8.88462 9.13968 8.88462H10.4715C11.9888 8.88462 13.0082 10.0858 13.0082 11.8735C13.0082 13.5742 11.9624 14.8269 10.5216 14.852ZM17.0559 11.195C17.4081 11.195 17.6936 11.4805 17.6936 11.8327C17.6936 12.1849 17.4081 12.4703 17.0559 12.4703H15.8988V14.2834C15.8988 14.6356 15.6133 14.9211 15.2611 14.9211C14.909 14.9211 14.6235 14.6356 14.6235 14.2834V9.47304C14.6235 9.12089 14.909 8.83539 15.2611 8.83539H17.2108C17.5629 8.83539 17.8484 9.12089 17.8484 9.47304C17.8484 9.8252 17.5629 10.1107 17.2108 10.1107H15.8988V11.195H17.0559Z" fill="#292B5C"/>
<path d="M10.4714 10.1599H9.77832C9.7793 10.7355 9.78278 13.0299 9.78457 13.5838C10.0499 13.5821 10.3341 13.5798 10.4992 13.5769C11.3513 13.562 11.7328 12.7106 11.7328 11.8735C11.7327 11.4715 11.6418 10.1599 10.4714 10.1599Z" fill="#292B5C"/>
<path d="M5.04764 10.1599H4.33789C4.33866 10.4437 4.33938 10.7455 4.33938 10.8898C4.33938 11.0583 4.34057 11.3507 4.34193 11.6221C4.60362 11.6208 4.88317 11.6196 5.04768 11.6196C5.45782 11.6196 5.80432 11.2854 5.80432 10.8898C5.80432 10.4941 5.45778 10.1599 5.04764 10.1599Z" fill="#292B5C"/>
<path d="M18.426 4.88866C18.2782 4.48354 18.0487 4.10911 17.7447 3.7885L15.0961 0.994694C14.4968 0.362569 13.6535 0 12.7824 0H4.29333C3.23852 0 2.38037 0.858152 2.38037 1.91296V4.88866H18.426Z" fill="#292B5C"/>
<path d="M2.38037 18.917V19.8522C2.38037 20.907 3.23852 21.7652 4.29333 21.7652H16.7063C17.7611 21.7652 18.6192 20.907 18.6192 19.8522V18.917H2.38037Z" fill="#292B5C"/>
</svg>
